<svg
  xmlns="http://www.w3.org/2000/svg"
  fill="none"
  viewBox='0 0 53 53'
  height="53"
  width="53"
>
  <path
    fill="#ef9834"
    d="M38 24.7441C43.5228 24.7441 48 20.267 48 14.7441C48 9.22129 43.5228 4.74414 38 4.74414C32.4772 4.74414 28 9.22129 28 14.7441C28 20.267 32.4772 24.7441 38 24.7441Z"
  />
  <path
    fill="#fff42b"
    d="M38 48.7441C43.5228 48.7441 48 44.267 48 38.7441C48 33.2213 43.5228 28.7441 38 28.7441C32.4772 28.7441 28 33.2213 28 38.7441C28 44.267 32.4772 48.7441 38 48.7441Z"
  />
  <path
    fill="#ff402b"
    d="M5 21.7441C5 12.3553 12.6112 4.74414 22 4.74414V31.7441C22 41.133 14.3888 48.7441 5 48.7441V21.7441Z"
  />
</svg>
